{
	"asset":{
		"generator":"Khronos glTF Blender I/O v4.5.48",
		"version":"2.0"
	},
	"scene":0,
	"scenes":[
		{
			"name":"Scene",
			"nodes":[
				0,
				1,
				2,
				3,
				4,
				5,
				6,
				7,
				8,
				9,
				10
			]
		}
	],
	"nodes":[
		{
			"mesh":0,
			"name":"Body_Color",
			"translation":[
				0,
				-0.36486437916755676,
				0
			]
		},
		{
			"mesh":1,
			"name":"Body_Arm_1",
			"translation":[
				2.8613139875233173e-06,
				-0.5290454030036926,
				0
			]
		},
		{
			"mesh":2,
			"name":"Body_Arm_2_Left",
			"translation":[
				0.30178120732307434,
				-0.5332695841789246,
				0
			]
		},
		{
			"mesh":3,
			"name":"Body_Arm_2_Right",
			"translation":[
				-0.30178114771842957,
				-0.5332695841789246,
				0
			]
		},
		{
			"mesh":4,
			"name":"Body_Hand_Left_Color",
			"translation":[
				0.37189534306526184,
				-0.6008777022361755,
				0
			]
		},
		{
			"mesh":5,
			"name":"Body_Hand_Right_Color",
			"translation":[
				-0.37189537286758423,
				-0.6008777022361755,
				0
			]
		},
		{
			"mesh":6,
			"name":"Head_Color"
		},
		{
			"mesh":7,
			"name":"Head_Display"
		},
		{
			"mesh":8,
			"name":"Head_Ears"
		},
		{
			"mesh":9,
			"name":"Head_Pin",
			"translation":[
				0,
				0.33406442403793335,
				0
			]
		},
		{
			"mesh":10,
			"name":"Head_Pin_Ball_Color",
			"translation":[
				0,
				0.49276524782180786,
				0
			]
		}
	],
	"meshes":[
		{
			"name":"Cube.005",
			"primitives":[
				{
					"attributes":{
						"POSITION":0,
						"NORMAL":1,
						"TEXCOORD_0":2
					},
					"indices":3
				}
			]
		},
		{
			"name":"Circle.002",
			"primitives":[
				{
					"attributes":{
						"POSITION":4,
						"NORMAL":5,
						"TEXCOORD_0":6
					},
					"indices":7
				}
			]
		},
		{
			"name":"Circle.010",
			"primitives":[
				{
					"attributes":{
						"POSITION":8,
						"NORMAL":9,
						"TEXCOORD_0":10
					},
					"indices":11
				}
			]
		},
		{
			"name":"Circle.003",
			"primitives":[
				{
					"attributes":{
						"POSITION":12,
						"NORMAL":13,
						"TEXCOORD_0":14
					},
					"indices":15
				}
			]
		},
		{
			"name":"Circle.011",
			"primitives":[
				{
					"attributes":{
						"POSITION":16,
						"NORMAL":17,
						"TEXCOORD_0":18
					},
					"indices":19
				}
			]
		},
		{
			"name":"Circle.004",
			"primitives":[
				{
					"attributes":{
						"POSITION":20,
						"NORMAL":21,
						"TEXCOORD_0":22
					},
					"indices":23
				}
			]
		},
		{
			"name":"Cube",
			"primitives":[
				{
					"attributes":{
						"POSITION":24,
						"NORMAL":25,
						"TEXCOORD_0":26
					},
					"indices":27
				}
			]
		},
		{
			"name":"Cube.003",
			"primitives":[
				{
					"attributes":{
						"POSITION":28,
						"NORMAL":29,
						"TEXCOORD_0":30
					},
					"indices":31
				}
			]
		},
		{
			"name":"Circle.001",
			"primitives":[
				{
					"attributes":{
						"POSITION":32,
						"NORMAL":33,
						"TEXCOORD_0":34
					},
					"indices":35
				}
			]
		},
		{
			"name":"Circle",
			"primitives":[
				{
					"attributes":{
						"POSITION":36,
						"NORMAL":37,
						"TEXCOORD_0":38
					},
					"indices":39
				}
			]
		},
		{
			"name":"Sphere",
			"primitives":[
				{
					"attributes":{
						"POSITION":40,
						"NORMAL":41,
						"TEXCOORD_0":42
					},
					"indices":43
				}
			]
		}
	],
	"accessors":[
		{
			"bufferView":0,
			"componentType":5126,
			"count":4494,
			"max":[
				0.23258255422115326,
				-0.0001960645167855546,
				0.2200014740228653
			],
			"min":[
				-0.23258255422115326,
				-0.45330607891082764,
				-0.2200014740228653
			],
			"type":"VEC3"
		},
		{
			"bufferView":1,
			"componentType":5126,
			"count":4494,
			"type":"VEC3"
		},
		{
			"bufferView":2,
			"componentType":5126,
			"count":4494,
			"type":"VEC2"
		},
		{
			"bufferView":3,
			"componentType":5123,
			"count":24576,
			"type":"SCALAR"
		},
		{
			"bufferView":4,
			"componentType":5126,
			"count":2846,
			"max":[
				0.30646294355392456,
				0.06260858476161957,
				0.060699135065078735
			],
			"min":[
				-0.30646875500679016,
				-0.06260725110769272,
				-0.06069914624094963
			],
			"type":"VEC3"
		},
		{
			"bufferView":5,
			"componentType":5126,
			"count":2846,
			"type":"VEC3"
		},
		{
			"bufferView":6,
			"componentType":5126,
			"count":2846,
			"type":"VEC2"
		},
		{
			"bufferView":7,
			"componentType":5123,
			"count":16872,
			"type":"SCALAR"
		},
		{
			"bufferView":8,
			"componentType":5126,
			"count":1408,
			"max":[
				0.10793696343898773,
				0.05507824569940567,
				0.059592101722955704
			],
			"min":[
				-0.005535854957997799,
				-0.09345906227827072,
				-0.0595921091735363
			],
			"type":"VEC3"
		},
		{
			"bufferView":9,
			"componentType":5126,
			"count":1408,
			"type":"VEC3"
		},
		{
			"bufferView":10,
			"componentType":5126,
			"count":1408,
			"type":"VEC2"
		},
		{
			"bufferView":11,
			"componentType":5123,
			"count":8436,
			"type":"SCALAR"
		},
		{
			"bufferView":12,
			"componentType":5126,
			"count":1408,
			"max":[
				0.005535841453820467,
				0.055078260600566864,
				0.059592101722955704
			],
			"min":[
				-0.10793699324131012,
				-0.09345904737710953,
				-0.05959209427237511
			],
			"type":"VEC3"
		},
		{
			"bufferView":13,
			"componentType":5126,
			"count":1408,
			"type":"VEC3"
		},
		{
			"bufferView":14,
			"componentType":5126,
			"count":1408,
			"type":"VEC2"
		},
		{
			"bufferView":15,
			"componentType":5123,
			"count":8436,
			"type":"SCALAR"
		},
		{
			"bufferView":16,
			"componentType":5126,
			"count":955,
			"max":[
				0.1201995462179184,
				0.013463957235217094,
				0.05788319557905197
			],
			"min":[
				-0.03241356462240219,
				-0.13242608308792114,
				-0.05788322538137436
			],
			"type":"VEC3"
		},
		{
			"bufferView":17,
			"componentType":5126,
			"count":955,
			"type":"VEC3"
		},
		{
			"bufferView":18,
			"componentType":5126,
			"count":955,
			"type":"VEC2"
		},
		{
			"bufferView":19,
			"componentType":5123,
			"count":5088,
			"type":"SCALAR"
		},
		{
			"bufferView":20,
			"componentType":5126,
			"count":955,
			"max":[
				0.03241351246833801,
				0.013463936746120453,
				0.057883214205503464
			],
			"min":[
				-0.1201995462179184,
				-0.13242611289024353,
				-0.05788319557905197
			],
			"type":"VEC3"
		},
		{
			"bufferView":21,
			"componentType":5126,
			"count":955,
			"type":"VEC3"
		},
		{
			"bufferView":22,
			"componentType":5126,
			"count":955,
			"type":"VEC2"
		},
		{
			"bufferView":23,
			"componentType":5123,
			"count":5088,
			"type":"SCALAR"
		},
		{
			"bufferView":24,
			"componentType":5126,
			"count":7232,
			"max":[
				0.41292035579681396,
				0.3340644836425781,
				0.20692689716815948
			],
			"min":[
				-0.41292035579681396,
				-0.3340644836425781,
				-0.20695970952510834
			],
			"type":"VEC3"
		},
		{
			"bufferView":25,
			"componentType":5126,
			"count":7232,
			"type":"VEC3"
		},
		{
			"bufferView":26,
			"componentType":5126,
			"count":7232,
			"type":"VEC2"
		},
		{
			"bufferView":27,
			"componentType":5123,
			"count":41604,
			"type":"SCALAR"
		},
		{
			"bufferView":28,
			"componentType":5126,
			"count":537,
			"max":[
				0.2902812957763672,
				0.21128134429454803,
				0.20695964992046356
			],
			"min":[
				-0.2902812361717224,
				-0.21128131449222565,
				0.06638748198747635
			],
			"type":"VEC3"
		},
		{
			"bufferView":29,
			"componentType":5126,
			"count":537,
			"type":"VEC3"
		},
		{
			"bufferView":30,
			"componentType":5126,
			"count":537,
			"type":"VEC2"
		},
		{
			"bufferView":31,
			"componentType":5123,
			"count":2892,
			"type":"SCALAR"
		},
		{
			"bufferView":32,
			"componentType":5126,
			"count":2210,
			"max":[
				0.4703023433685303,
				0.09023692458868027,
				0.09023704379796982
			],
			"min":[
				-0.4703023433685303,
				-0.09023695439100266,
				-0.09023704379796982
			],
			"type":"VEC3"
		},
		{
			"bufferView":33,
			"componentType":5126,
			"count":2210,
			"type":"VEC3"
		},
		{
			"bufferView":34,
			"componentType":5126,
			"count":2210,
			"type":"VEC2"
		},
		{
			"bufferView":35,
			"componentType":5123,
			"count":13056,
			"type":"SCALAR"
		},
		{
			"bufferView":36,
			"componentType":5126,
			"count":800,
			"max":[
				0.11125483363866806,
				0.15870070457458496,
				0.11125483363866806
			],
			"min":[
				-0.11125483363866806,
				0,
				-0.11125483363866806
			],
			"type":"VEC3"
		},
		{
			"bufferView":37,
			"componentType":5126,
			"count":800,
			"type":"VEC3"
		},
		{
			"bufferView":38,
			"componentType":5126,
			"count":800,
			"type":"VEC2"
		},
		{
			"bufferView":39,
			"componentType":5123,
			"count":4608,
			"type":"SCALAR"
		},
		{
			"bufferView":40,
			"componentType":5126,
			"count":559,
			"max":[
				0.07853874564170837,
				0.1481611579656601,
				0.07853882014751434
			],
			"min":[
				-0.07853879779577255,
				-0.008916486985981464,
				-0.07853876799345016
			],
			"type":"VEC3"
		},
		{
			"bufferView":41,
			"componentType":5126,
			"count":559,
			"type":"VEC3"
		},
		{
			"bufferView":42,
			"componentType":5126,
			"count":559,
			"type":"VEC2"
		},
		{
			"bufferView":43,
			"componentType":5123,
			"count":2880,
			"type":"SCALAR"
		}
	],
	"bufferViews":[
		{
			"buffer":0,
			"byteLength":53928,
			"byteOffset":0,
			"target":34962
		},
		{
			"buffer":0,
			"byteLength":53928,
			"byteOffset":53928,
			"target":34962
		},
		{
			"buffer":0,
			"byteLength":35952,
			"byteOffset":107856,
			"target":34962
		},
		{
			"buffer":0,
			"byteLength":49152,
			"byteOffset":143808,
			"target":34963
		},
		{
			"buffer":0,
			"byteLength":34152,
			"byteOffset":192960,
			"target":34962
		},
		{
			"buffer":0,
			"byteLength":34152,
			"byteOffset":227112,
			"target":34962
		},
		{
			"buffer":0,
			"byteLength":22768,
			"byteOffset":261264,
			"target":34962
		},
		{
			"buffer":0,
			"byteLength":33744,
			"byteOffset":284032,
			"target":34963
		},
		{
			"buffer":0,
			"byteLength":16896,
			"byteOffset":317776,
			"target":34962
		},
		{
			"buffer":0,
			"byteLength":16896,
			"byteOffset":334672,
			"target":34962
		},
		{
			"buffer":0,
			"byteLength":11264,
			"byteOffset":351568,
			"target":34962
		},
		{
			"buffer":0,
			"byteLength":16872,
			"byteOffset":362832,
			"target":34963
		},
		{
			"buffer":0,
			"byteLength":16896,
			"byteOffset":379704,
			"target":34962
		},
		{
			"buffer":0,
			"byteLength":16896,
			"byteOffset":396600,
			"target":34962
		},
		{
			"buffer":0,
			"byteLength":11264,
			"byteOffset":413496,
			"target":34962
		},
		{
			"buffer":0,
			"byteLength":16872,
			"byteOffset":424760,
			"target":34963
		},
		{
			"buffer":0,
			"byteLength":11460,
			"byteOffset":441632,
			"target":34962
		},
		{
			"buffer":0,
			"byteLength":11460,
			"byteOffset":453092,
			"target":34962
		},
		{
			"buffer":0,
			"byteLength":7640,
			"byteOffset":464552,
			"target":34962
		},
		{
			"buffer":0,
			"byteLength":10176,
			"byteOffset":472192,
			"target":34963
		},
		{
			"buffer":0,
			"byteLength":11460,
			"byteOffset":482368,
			"target":34962
		},
		{
			"buffer":0,
			"byteLength":11460,
			"byteOffset":493828,
			"target":34962
		},
		{
			"buffer":0,
			"byteLength":7640,
			"byteOffset":505288,
			"target":34962
		},
		{
			"buffer":0,
			"byteLength":10176,
			"byteOffset":512928,
			"target":34963
		},
		{
			"buffer":0,
			"byteLength":86784,
			"byteOffset":523104,
			"target":34962
		},
		{
			"buffer":0,
			"byteLength":86784,
			"byteOffset":609888,
			"target":34962
		},
		{
			"buffer":0,
			"byteLength":57856,
			"byteOffset":696672,
			"target":34962
		},
		{
			"buffer":0,
			"byteLength":83208,
			"byteOffset":754528,
			"target":34963
		},
		{
			"buffer":0,
			"byteLength":6444,
			"byteOffset":837736,
			"target":34962
		},
		{
			"buffer":0,
			"byteLength":6444,
			"byteOffset":844180,
			"target":34962
		},
		{
			"buffer":0,
			"byteLength":4296,
			"byteOffset":850624,
			"target":34962
		},
		{
			"buffer":0,
			"byteLength":5784,
			"byteOffset":854920,
			"target":34963
		},
		{
			"buffer":0,
			"byteLength":26520,
			"byteOffset":860704,
			"target":34962
		},
		{
			"buffer":0,
			"byteLength":26520,
			"byteOffset":887224,
			"target":34962
		},
		{
			"buffer":0,
			"byteLength":17680,
			"byteOffset":913744,
			"target":34962
		},
		{
			"buffer":0,
			"byteLength":26112,
			"byteOffset":931424,
			"target":34963
		},
		{
			"buffer":0,
			"byteLength":9600,
			"byteOffset":957536,
			"target":34962
		},
		{
			"buffer":0,
			"byteLength":9600,
			"byteOffset":967136,
			"target":34962
		},
		{
			"buffer":0,
			"byteLength":6400,
			"byteOffset":976736,
			"target":34962
		},
		{
			"buffer":0,
			"byteLength":9216,
			"byteOffset":983136,
			"target":34963
		},
		{
			"buffer":0,
			"byteLength":6708,
			"byteOffset":992352,
			"target":34962
		},
		{
			"buffer":0,
			"byteLength":6708,
			"byteOffset":999060,
			"target":34962
		},
		{
			"buffer":0,
			"byteLength":4472,
			"byteOffset":1005768,
			"target":34962
		},
		{
			"buffer":0,
			"byteLength":5760,
			"byteOffset":1010240,
			"target":34963
		}
	],
	"buffers":[
		{
			"byteLength":1016000,
			"uri":"Roboter.bin"
		}
	]
}
